# Blender v2.79 (sub 0) OBJ File: 'chimney.blend'
# www.blender.org
mtllib chimney.mtl
o Cube_Cube.001
v -1.004587 -0.014070 0.998325
v -1.004587 1.985930 0.998325
v -1.004587 -0.014070 -1.001675
v -1.004587 1.985930 -1.001675
v 0.995413 -0.014070 0.998325
v 0.995413 1.985930 0.998325
v 0.995413 -0.014070 -1.001675
v 0.995413 1.985930 -1.001675
v -1.004587 2.503732 0.467337
v 0.995413 2.503732 0.483734
v 0.995413 2.487754 -0.419067
v -1.004587 2.487754 -0.434541
v -1.004587 2.236842 -0.718108
v -0.004587 1.985930 -1.001675
v 0.995413 2.236842 -0.710371
v -0.004587 2.487754 -0.426804
v -0.004587 2.236842 -0.714240
v 0.995413 2.244831 0.741030
v -0.004587 1.985930 0.998325
v -1.004587 2.244831 0.732831
v -0.004587 2.503732 0.475536
v -0.004587 2.244831 0.736930
v 1.040706 2.500464 -0.408991
v 0.040706 2.500464 -0.417190
v -1.004587 5.096445 0.467337
v -1.004587 5.080466 -0.434541
v -0.004587 5.080466 -0.426804
v -0.004587 5.096445 0.475536
v 0.040706 5.093176 -0.417190
v -0.831382 0.159134 0.825120
v -0.815699 1.895583 0.783490
v -0.831382 0.159134 -0.828470
v -0.816999 1.889787 -0.788223
v 0.995413 0.198055 0.786200
v 0.995413 1.871558 0.720985
v 0.995413 0.198055 -0.789550
v 0.995101 1.861112 -0.728876
v -0.762212 2.435184 0.304386
v 0.995971 2.225898 0.370590
v 0.993902 2.260458 -0.223285
v -0.761407 2.415352 -0.274483
v -0.792627 2.077746 -0.577552
v -0.004743 1.861918 -0.728510
v 0.994369 2.009693 -0.514415
v -0.006318 2.323988 -0.175457
v -0.005347 2.010846 -0.516956
v 0.995944 2.033173 0.528428
v -0.004413 1.870588 0.721388
v -0.792041 2.093389 0.584895
v -0.087308 2.302292 0.269197
v -0.003727 2.031690 0.525821
v 1.040706 2.200473 -0.407902
v -0.168077 2.285263 -0.426986
v -0.792783 5.096445 0.254882
v -0.792078 5.080466 -0.222791
v -0.006904 5.080466 -0.126813
v -0.210129 5.096445 0.257029
v -0.258900 5.093176 -0.432388
vn -1.0000 0.0000 0.0000
vn 0.0000 0.0000 -1.0000
vn 0.0000 0.0000 1.0000
vn 0.0000 -1.0000 0.0000
vn 0.0051 0.7533 -0.6576
vn 0.0000 0.7105 0.7037
vn 0.0050 0.7577 -0.6526
vn 0.0025 0.7577 -0.6526
vn 0.0025 0.7533 -0.6576
vn 0.0000 0.7049 0.7093
vn -0.0029 0.7049 0.7093
vn -0.0029 0.7105 0.7037
vn 0.0000 1.0000 -0.0037
vn 0.9987 0.0000 0.0507
vn -0.0082 0.0000 1.0000
vn 0.0077 0.0000 -1.0000
vn 0.0026 0.7489 -0.6627
vn -0.0029 0.7159 0.6982
vn 0.0000 0.7533 -0.6576
vn 0.0000 0.7489 -0.6627
vn -0.0058 0.7105 0.7037
vn -0.0057 0.7159 0.6982
vn 1.0000 -0.0083 -0.0008
vn 0.0003 -0.0365 0.9993
vn -0.0770 -0.0232 -0.9968
vn -0.0213 0.9998 0.0000
vn -0.1751 -0.7259 0.6651
vn -0.0723 -0.7697 -0.6343
vn -0.0169 -0.7576 0.6525
vn -0.0024 -0.8220 0.5695
vn -0.1131 -0.8126 0.5717
vn 0.0005 -0.7660 -0.6429
vn 0.0030 -0.6336 -0.7736
vn -0.1077 -0.7014 -0.7046
vn -0.0734 -0.9968 0.0329
vn -0.9965 -0.0435 0.0707
vn -0.0558 -0.0192 -0.9983
vn 0.9999 0.0115 0.0010
vn -0.1321 -0.0175 0.9911
vn 1.0000 -0.0090 0.0000
vn 0.9931 -0.1177 0.0011
vn 0.9965 -0.0835 0.0042
vn 0.9957 -0.0927 0.0007
vn 0.9917 -0.1282 -0.0003
vn -0.0202 -0.0488 0.9986
vn -0.0741 -0.0226 0.9970
vn -0.0202 -0.0508 -0.9985
vn -0.0004 -0.0389 -0.9992
vn -0.1132 -0.6579 0.7445
vn -0.1077 -0.6979 -0.7080
vn -0.0026 -0.7370 0.6758
vn -0.0004 -0.8177 0.5756
vn -0.0745 -0.7398 0.6687
vn 0.0028 -0.7718 -0.6358
vn 0.0199 -0.6847 -0.7285
vn -0.1617 -0.6176 -0.7697
vn -0.0704 -0.9971 0.0285
vn -0.9927 -0.0319 0.1160
vn 0.0037 -0.0042 -1.0000
vn 0.9999 0.0115 0.0011
vn -0.1213 -0.0206 0.9924
vn 1.0000 0.0000 0.0000
vn 1.0000 -0.0001 0.0026
vn 1.0000 -0.0026 0.0023
vn 0.0774 0.6504 0.7557
vn 1.0000 -0.0009 0.0007
vn 1.0000 0.0014 0.0014
vn 0.0178 0.0283 -0.9994
vn 0.9984 0.0002 0.0574
vn 0.0332 0.9989 -0.0334
vn 0.0000 1.0000 0.0000
vn 0.0037 1.0000 -0.0035
vn 0.0507 0.0000 -0.9987
vn 1.0000 0.0001 0.0069
vn 1.0000 0.0001 0.0012
vn 1.0000 -0.0030 0.0042
vn -0.0042 0.8379 0.5459
vn 1.0000 -0.0010 0.0041
vn 1.0000 0.0010 0.0015
vn 0.0082 -0.0036 -1.0000
vn 0.9985 -0.0187 0.0507
vn -0.0178 0.9997 -0.0177
vn 0.0002 1.0000 -0.0048
vn 0.0473 -0.0004 -0.9989
vn 1.0000 0.0000 0.0077
usemtl None
s off
f 4//1 3//1 2//1
f 14//2 8//2 7//2
f 19//3 2//3 1//3
f 7//4 1//4 3//4
f 17//5 12//5 16//5
f 22//6 2//6 19//6
f 15//7 16//7 11//7
f 8//8 17//8 15//8
f 14//9 13//9 17//9
f 18//10 19//10 6//10
f 10//11 22//11 18//11
f 21//12 20//12 22//12
f 10//13 24//13 21//13
f 21//14 29//14 28//14
f 21//15 25//15 9//15
f 9//1 26//1 12//1
f 12//16 27//16 16//16
f 3//1 1//1 2//1
f 2//1 20//1 13//1
f 20//1 9//1 12//1
f 13//1 20//1 12//1
f 13//1 4//1 2//1
f 7//2 3//2 14//2
f 3//2 4//2 14//2
f 1//3 5//3 19//3
f 5//3 6//3 19//3
f 7//4 5//4 1//4
f 17//17 13//17 12//17
f 22//18 20//18 2//18
f 15//9 17//9 16//9
f 8//19 14//19 17//19
f 14//20 4//20 13//20
f 18//12 22//12 19//12
f 10//21 21//21 22//21
f 21//22 9//22 20//22
f 10//13 23//13 24//13
f 21//14 24//14 29//14
f 21//15 28//15 25//15
f 9//1 25//1 26//1
f 12//16 26//16 27//16
f 33//23 31//23 32//23
f 43//24 36//24 37//24
f 48//25 30//25 31//25
f 36//26 32//26 30//26
f 46//27 45//27 41//27
f 51//28 48//28 31//28
f 44//29 40//29 45//29
f 37//30 44//30 46//30
f 43//31 46//31 42//31
f 47//32 35//32 48//32
f 39//33 47//33 51//33
f 50//34 51//34 49//34
f 39//35 50//35 53//35
f 50//36 57//36 58//36
f 50//37 38//37 54//37
f 38//38 41//38 55//38
f 41//39 45//39 56//39
f 32//40 31//40 30//40
f 31//41 42//41 49//41
f 49//42 41//42 38//42
f 42//43 41//43 49//43
f 42//44 31//44 33//44
f 36//45 43//45 32//45
f 32//46 43//46 33//46
f 30//47 48//47 34//47
f 34//48 48//48 35//48
f 36//26 30//26 34//26
f 46//49 41//49 42//49
f 51//50 31//50 49//50
f 44//51 45//51 46//51
f 37//52 46//52 43//52
f 43//53 42//53 33//53
f 47//54 48//54 51//54
f 39//55 51//55 50//55
f 50//56 49//56 38//56
f 39//57 53//57 52//57
f 50//58 58//58 53//58
f 50//59 54//59 57//59
f 38//60 55//60 54//60
f 41//61 56//61 55//61
f 8//62 36//62 7//62
f 7//62 34//62 5//62
f 18//63 35//63 47//63
f 6//62 34//62 35//62
f 11//64 44//64 15//64
f 11//65 45//65 40//65
f 15//66 37//66 8//66
f 18//67 39//67 10//67
f 24//68 52//68 53//68
f 23//69 39//69 52//69
f 26//70 54//70 55//70
f 27//71 55//71 56//71
f 28//71 54//71 25//71
f 29//72 57//72 28//72
f 24//73 58//73 29//73
f 16//74 56//74 45//74
f 8//75 37//75 36//75
f 7//62 36//62 34//62
f 18//62 6//62 35//62
f 6//62 5//62 34//62
f 11//76 40//76 44//76
f 11//77 16//77 45//77
f 15//78 44//78 37//78
f 18//79 47//79 39//79
f 24//80 23//80 52//80
f 23//81 10//81 39//81
f 26//82 25//82 54//82
f 27//71 26//71 55//71
f 28//71 57//71 54//71
f 29//83 58//83 57//83
f 24//84 53//84 58//84
f 16//85 27//85 56//85
